<svg width="29" height="31" viewBox="0 0 29 31" fill="none" xmlns="http://www.w3.org/2000/svg">
<path d="M0.951875 10L5.48788 5.226C5.72121 4.974 5.92188 4.73133 6.08988 4.498C6.25788 4.26467 6.38388 4.03133 6.46788 3.798C6.55188 3.56467 6.59388 3.31733 6.59388 3.056C6.59388 2.86933 6.55654 2.68733 6.48188 2.51C6.41654 2.32333 6.30921 2.15533 6.15988 2.006C6.01988 1.85667 5.84721 1.74 5.64188 1.656C5.43654 1.56267 5.19854 1.516 4.92788 1.516C4.55454 1.516 4.23254 1.60467 3.96188 1.782C3.69121 1.95 3.48121 2.19733 3.33188 2.524C3.19188 2.85067 3.12188 3.22867 3.12188 3.658H1.48388C1.48388 2.958 1.61454 2.33733 1.87588 1.796C2.14654 1.24533 2.53854 0.815999 3.05188 0.508C3.57454 0.190666 4.20921 0.0319998 4.95588 0.0319998C5.52521 0.0319998 6.01988 0.125333 6.43988 0.312C6.85988 0.489333 7.20521 0.722666 7.47588 1.012C7.75588 1.30133 7.96121 1.61867 8.09188 1.964C8.23188 2.30933 8.30188 2.64533 8.30188 2.972C8.30188 3.48533 8.17588 3.98 7.92388 4.456C7.68121 4.932 7.35921 5.35667 6.95788 5.73L4.17188 8.46H8.42788V10H0.951875ZM11.3051 5.1C11.3051 5.62267 11.3564 6.10333 11.4591 6.542C11.5618 6.98067 11.7064 7.35867 11.8931 7.676C12.0891 7.99333 12.3224 8.24067 12.5931 8.418C12.8638 8.586 13.1624 8.67 13.4891 8.67C13.8344 8.67 14.1378 8.586 14.3991 8.418C14.6698 8.24067 14.8984 7.99333 15.0851 7.676C15.2811 7.35867 15.4304 6.98067 15.5331 6.542C15.6358 6.10333 15.6871 5.62267 15.6871 5.1C15.6871 4.57733 15.6358 4.09667 15.5331 3.658C15.4304 3.21933 15.2811 2.84133 15.0851 2.524C14.8984 2.20667 14.6698 1.964 14.3991 1.796C14.1378 1.61867 13.8344 1.53 13.4891 1.53C13.1624 1.53 12.8638 1.61867 12.5931 1.796C12.3224 1.964 12.0891 2.20667 11.8931 2.524C11.7064 2.84133 11.5618 3.21933 11.4591 3.658C11.3564 4.09667 11.3051 4.57733 11.3051 5.1ZM9.68109 5.1C9.68109 4.08267 9.83976 3.196 10.1571 2.44C10.4838 1.684 10.9318 1.096 11.5011 0.676C12.0798 0.256 12.7424 0.0459996 13.4891 0.0459996C14.2544 0.0459996 14.9218 0.256 15.4911 0.676C16.0698 1.096 16.5178 1.684 16.8351 2.44C17.1524 3.196 17.3111 4.08267 17.3111 5.1C17.3111 6.11733 17.1524 7.004 16.8351 7.76C16.5178 8.516 16.0698 9.104 15.4911 9.524C14.9218 9.944 14.2544 10.154 13.4891 10.154C12.7424 10.154 12.0798 9.944 11.5011 9.524C10.9318 9.104 10.4838 8.516 10.1571 7.76C9.83976 7.004 9.68109 6.11733 9.68109 5.1ZM18.2911 2.384C18.2911 1.94533 18.3891 1.54867 18.5851 1.194C18.7904 0.83 19.0751 0.540666 19.4391 0.325999C19.8031 0.111333 20.2138 0.00399935 20.6711 0.00399935C21.1471 0.00399935 21.5624 0.111333 21.9171 0.325999C22.2811 0.540666 22.5611 0.83 22.7571 1.194C22.9624 1.54867 23.0651 1.94533 23.0651 2.384C23.0651 2.82267 22.9624 3.224 22.7571 3.588C22.5611 3.94267 22.2811 4.22733 21.9171 4.442C21.5624 4.65667 21.1471 4.764 20.6711 4.764C20.2138 4.764 19.8031 4.65667 19.4391 4.442C19.0751 4.22733 18.7904 3.94267 18.5851 3.588C18.3891 3.224 18.2911 2.82267 18.2911 2.384ZM19.5791 2.384C19.5791 2.58933 19.6258 2.78533 19.7191 2.972C19.8124 3.14933 19.9384 3.294 20.0971 3.406C20.2651 3.50867 20.4564 3.56 20.6711 3.56C20.9044 3.56 21.1004 3.50867 21.2591 3.406C21.4178 3.294 21.5438 3.14933 21.6371 2.972C21.7304 2.78533 21.7771 2.58933 21.7771 2.384C21.7771 2.16933 21.7304 1.97333 21.6371 1.796C21.5438 1.61867 21.4178 1.47867 21.2591 1.376C21.1004 1.27333 20.9044 1.222 20.6711 1.222C20.4564 1.222 20.2651 1.27333 20.0971 1.376C19.9384 1.47867 19.8124 1.61867 19.7191 1.796C19.6258 1.97333 19.5791 2.16933 19.5791 2.384ZM24.1291 7.816C24.1291 7.368 24.2318 6.96667 24.4371 6.612C24.6424 6.248 24.9224 5.96333 25.2771 5.758C25.6411 5.54333 26.0564 5.436 26.5231 5.436C26.9898 5.436 27.4004 5.54333 27.7551 5.758C28.1191 5.96333 28.3991 6.248 28.5951 6.612C28.8004 6.96667 28.9031 7.368 28.9031 7.816C28.9031 8.24533 28.8004 8.642 28.5951 9.006C28.3991 9.37 28.1191 9.65933 27.7551 9.874C27.4004 10.0793 26.9898 10.182 26.5231 10.182C26.0564 10.182 25.6411 10.0793 25.2771 9.874C24.9224 9.65933 24.6424 9.37 24.4371 9.006C24.2318 8.642 24.1291 8.24533 24.1291 7.816ZM25.4311 7.802C25.4311 8.00733 25.4731 8.20333 25.5571 8.39C25.6504 8.56733 25.7764 8.712 25.9351 8.824C26.1031 8.92667 26.2991 8.978 26.5231 8.978C26.7471 8.978 26.9384 8.92667 27.0971 8.824C27.2651 8.712 27.3911 8.56733 27.4751 8.39C27.5684 8.21267 27.6151 8.01667 27.6151 7.802C27.6151 7.59667 27.5684 7.40533 27.4751 7.228C27.3911 7.05067 27.2651 6.91067 27.0971 6.808C26.9384 6.696 26.7471 6.64 26.5231 6.64C26.2991 6.64 26.1031 6.696 25.9351 6.808C25.7764 6.91067 25.6504 7.05067 25.5571 7.228C25.4731 7.40533 25.4311 7.59667 25.4311 7.802ZM26.2431 0.199999H27.7411L20.9511 10H19.4531L26.2431 0.199999ZM7.34938 25.1C7.34938 25.772 7.48938 26.374 7.76938 26.906C8.05872 27.4287 8.45538 27.8393 8.95938 28.138C9.46338 28.4367 10.0374 28.586 10.6814 28.586C11.3347 28.586 11.9087 28.4367 12.4034 28.138C12.9074 27.8393 13.2994 27.4287 13.5794 26.906C13.8687 26.374 14.0134 25.772 14.0134 25.1C14.0134 24.428 13.8734 23.8307 13.5934 23.308C13.3134 22.776 12.9214 22.3607 12.4174 22.062C11.9227 21.7633 11.344 21.614 10.6814 21.614C10.0374 21.614 9.46338 21.7633 8.95938 22.062C8.45538 22.3607 8.05872 22.776 7.76938 23.308C7.48938 23.8307 7.34938 24.428 7.34938 25.1ZM5.59938 25.1C5.59938 24.3627 5.72538 23.686 5.97738 23.07C6.22938 22.454 6.58405 21.922 7.04138 21.474C7.50805 21.0167 8.04938 20.662 8.66538 20.41C9.29072 20.158 9.96272 20.032 10.6814 20.032C11.4187 20.032 12.0954 20.158 12.7114 20.41C13.3274 20.662 13.864 21.0167 14.3214 21.474C14.788 21.922 15.1474 22.454 15.3994 23.07C15.6514 23.686 15.7774 24.3627 15.7774 25.1C15.7774 25.828 15.6514 26.5047 15.3994 27.13C15.1474 27.7553 14.7927 28.2967 14.3354 28.754C13.8781 29.2113 13.3367 29.5707 12.7114 29.832C12.0954 30.084 11.4187 30.21 10.6814 30.21C9.95338 30.21 9.27672 30.084 8.65138 29.832C8.02605 29.5707 7.48472 29.2113 7.02738 28.754C6.57938 28.2967 6.22938 27.7553 5.97738 27.13C5.72538 26.5047 5.59938 25.828 5.59938 25.1ZM16.726 23.56H20.422V24.89H16.726V23.56ZM20.254 20.704C20.1607 20.5547 20.0533 20.4567 19.932 20.41C19.82 20.3633 19.7033 20.34 19.582 20.34C19.442 20.34 19.3207 20.3773 19.218 20.452C19.1247 20.5267 19.05 20.648 18.994 20.816C18.938 20.984 18.91 21.2033 18.91 21.474V30H17.426V21.18C17.426 20.676 17.5053 20.2607 17.664 19.934C17.832 19.598 18.07 19.346 18.378 19.178C18.686 19.0007 19.064 18.912 19.512 18.912C19.764 18.912 19.9833 18.9447 20.17 19.01C20.3567 19.0753 20.5153 19.1547 20.646 19.248C20.786 19.3413 20.8933 19.4347 20.968 19.528L20.254 20.704ZM21.0463 23.56H24.7423V24.89H21.0463V23.56ZM24.5743 20.704C24.481 20.5547 24.3736 20.4567 24.2523 20.41C24.1403 20.3633 24.0236 20.34 23.9023 20.34C23.7623 20.34 23.641 20.3773 23.5383 20.452C23.445 20.5267 23.3703 20.648 23.3143 20.816C23.2583 20.984 23.2303 21.2033 23.2303 21.474V30H21.7463V21.18C21.7463 20.676 21.8256 20.2607 21.9843 19.934C22.1523 19.598 22.3903 19.346 22.6983 19.178C23.0063 19.0007 23.3843 18.912 23.8323 18.912C24.0843 18.912 24.3036 18.9447 24.4903 19.01C24.677 19.0753 24.8356 19.1547 24.9663 19.248C25.1063 19.3413 25.2136 19.4347 25.2883 19.528L24.5743 20.704Z" fill="white"/>
</svg>
