<svg width="99" height="99" viewBox="0 0 99 99" fill="none" xmlns="http://www.w3.org/2000/svg">
<path d="M30.0491 13.7496C30.3339 14.0337 30.5599 14.3712 30.7141 14.7428C30.8683 15.1144 30.9476 15.5127 30.9476 15.915C30.9476 16.3173 30.8683 16.7156 30.7141 17.0872C30.5599 17.4588 30.3339 17.7963 30.0491 18.0804L17.8153 30.3142C17.5312 30.599 17.1937 30.825 16.8221 30.9792C16.4505 31.1333 16.0522 31.2127 15.6499 31.2127C15.2476 31.2127 14.8493 31.1333 14.4777 30.9792C14.1061 30.825 13.7686 30.599 13.4845 30.3142L7.36763 24.1973C7.08327 23.9129 6.8577 23.5753 6.70381 23.2038C6.54991 22.8322 6.4707 22.434 6.4707 22.0319C6.4707 21.6297 6.54991 21.2315 6.70381 20.86C6.8577 20.4885 7.08327 20.1509 7.36763 19.8665C7.652 19.5821 7.98958 19.3566 8.36112 19.2027C8.73266 19.0488 9.13087 18.9696 9.53302 18.9696C9.93516 18.9696 10.3334 19.0488 10.7049 19.2027C11.0764 19.3566 11.414 19.5821 11.6984 19.8665L15.6499 23.8241L25.7183 13.7496C26.0024 13.4648 26.3399 13.2388 26.7115 13.0846C27.0831 12.9304 27.4814 12.8511 27.8837 12.8511C28.286 12.8511 28.6843 12.9304 29.0559 13.0846C29.4275 13.2388 29.765 13.4648 30.0491 13.7496ZM89.0527 25.0903H40.1175C39.3064 25.0903 38.5284 24.7681 37.9549 24.1945C37.3813 23.621 37.0591 22.843 37.0591 22.0319C37.0591 21.2207 37.3813 20.4428 37.9549 19.8692C38.5284 19.2957 39.3064 18.9734 40.1175 18.9734H89.0527C89.8638 18.9734 90.6418 19.2957 91.2153 19.8692C91.7889 20.4428 92.1111 21.2207 92.1111 22.0319C92.1111 22.843 91.7889 23.621 91.2153 24.1945C90.6418 24.7681 89.8638 25.0903 89.0527 25.0903ZM37.0591 49.5579C37.0591 48.7468 37.3813 47.9689 37.9549 47.3953C38.5284 46.8217 39.3064 46.4995 40.1175 46.4995H89.0527C89.8638 46.4995 90.6418 46.8217 91.2153 47.3953C91.7889 47.9689 92.1111 48.7468 92.1111 49.5579C92.1111 50.3691 91.7889 51.147 91.2153 51.7206C90.6418 52.2942 89.8638 52.6164 89.0527 52.6164H40.1175C39.3064 52.6164 38.5284 52.2942 37.9549 51.7206C37.3813 51.147 37.0591 50.3691 37.0591 49.5579ZM30.0491 68.8017C30.3339 69.0858 30.5599 69.4233 30.7141 69.7949C30.8683 70.1664 30.9476 70.5648 30.9476 70.9671C30.9476 71.3694 30.8683 71.7677 30.7141 72.1393C30.5599 72.5108 30.3339 72.8484 30.0491 73.1325L17.8153 85.3662C17.5312 85.6511 17.1937 85.877 16.8221 86.0312C16.4505 86.1854 16.0522 86.2648 15.6499 86.2648C15.2476 86.2648 14.8493 86.1854 14.4777 86.0312C14.1061 85.877 13.7686 85.6511 13.4845 85.3662L7.36763 79.2494C7.08327 78.965 6.8577 78.6274 6.70381 78.2559C6.54991 77.8843 6.4707 77.4861 6.4707 77.084C6.4707 76.6818 6.54991 76.2836 6.70381 75.9121C6.8577 75.5405 7.08327 75.2029 7.36763 74.9186C7.94193 74.3443 8.72084 74.0217 9.53302 74.0217C9.93516 74.0217 10.3334 74.1009 10.7049 74.2548C11.0764 74.4087 11.414 74.6342 11.6984 74.9186L15.6499 78.8762L25.7183 68.8017C26.0024 68.5169 26.3399 68.2909 26.7115 68.1367C27.0831 67.9825 27.4814 67.9032 27.8837 67.9032C28.286 67.9032 28.6843 67.9825 29.0559 68.1367C29.4275 68.2909 29.765 68.5169 30.0491 68.8017ZM89.0527 80.1424H40.1175C39.3064 80.1424 38.5284 79.8202 37.9549 79.2466C37.3813 78.673 37.0591 77.8951 37.0591 77.084C37.0591 76.2728 37.3813 75.4949 37.9549 74.9213C38.5284 74.3477 39.3064 74.0255 40.1175 74.0255H89.0527C89.8638 74.0255 90.6418 74.3477 91.2153 74.9213C91.7889 75.4949 92.1111 76.2728 92.1111 77.084C92.1111 77.8951 91.7889 78.673 91.2153 79.2466C90.6418 79.8202 89.8638 80.1424 89.0527 80.1424Z" fill="#FF9796"/>
</svg>
