<svg width="98" height="98" viewBox="0 0 98 98" fill="none" xmlns="http://www.w3.org/2000/svg">
<g clip-path="url(#clip0_956_1202)">
<path d="M12.25 67.375V55.125H0V0H73.5V12.25H85.75V36.75H79.625V18.375H18.375V61.25H55.125V67.375H12.25ZM12.25 49V12.25H67.375V6.125H6.125V49H12.25ZM24.5 55.125V42.875H30.625V55.125H24.5ZM36.75 55.125V30.625H42.875V55.125H36.75ZM49 55.125V36.75H55.125V55.125H49ZM79.625 42.875C82.1452 42.875 84.5218 43.3535 86.7549 44.3105C88.988 45.2676 90.9339 46.5755 92.5928 48.2344C94.2516 49.8932 95.5755 51.8551 96.5645 54.1201C97.5534 56.3851 98.0319 58.7617 98 61.25C98 63.8021 97.5215 66.1787 96.5645 68.3799C95.6074 70.5811 94.2995 72.527 92.6406 74.2178C90.9818 75.9085 89.0199 77.2324 86.7549 78.1895C84.4899 79.1465 82.1133 79.625 79.625 79.625C77.7109 79.625 75.8447 79.3379 74.0264 78.7637C72.208 78.1895 70.5332 77.3441 69.002 76.2275L48.0908 97.0908C47.4847 97.6969 46.7669 98 45.9375 98C45.1081 98 44.3903 97.6969 43.7842 97.0908C43.1781 96.4847 42.875 95.7669 42.875 94.9375C42.875 94.1081 43.1781 93.3903 43.7842 92.7842L64.6475 71.873C63.5309 70.3418 62.6855 68.667 62.1113 66.8486C61.5371 65.0303 61.25 63.1641 61.25 61.25C61.25 58.7298 61.7285 56.3532 62.6855 54.1201C63.6426 51.887 64.9505 49.9411 66.6094 48.2822C68.2682 46.6234 70.2142 45.2995 72.4473 44.3105C74.6803 43.3216 77.0729 42.8431 79.625 42.875ZM79.625 73.5C81.3158 73.5 82.8949 73.181 84.3623 72.543C85.8298 71.9049 87.1377 71.0277 88.2861 69.9111C89.4346 68.7946 90.3119 67.5026 90.918 66.0352C91.5241 64.5677 91.8431 62.9727 91.875 61.25C91.875 59.5592 91.556 57.9801 90.918 56.5127C90.2799 55.0452 89.4027 53.7373 88.2861 52.5889C87.1696 51.4404 85.8776 50.5632 84.4102 49.957C82.9427 49.3509 81.3477 49.0319 79.625 49C77.9342 49 76.3551 49.319 74.8877 49.957C73.4202 50.5951 72.1123 51.4723 70.9639 52.5889C69.8154 53.7054 68.9381 54.9974 68.332 56.4648C67.7259 57.9323 67.4069 59.5273 67.375 61.25C67.375 62.9408 67.694 64.5199 68.332 65.9873C68.9701 67.4548 69.8473 68.7627 70.9639 69.9111C72.0804 71.0596 73.3724 71.9369 74.8398 72.543C76.3073 73.1491 77.9023 73.4681 79.625 73.5Z" fill="#5ACEDE"/>
</g>
<defs>
<clipPath id="clip0_956_1202">
<rect width="98" height="98" fill="white"/>
</clipPath>
</defs>
</svg>
