<svg width="22" height="22" viewBox="0 0 22 22" fill="none" xmlns="http://www.w3.org/2000/svg">
<g clip-path="url(#clip0_956_1212)">
<path d="M16.4997 11.9168V18.3335H3.66634V5.50016H8.26801C8.31384 4.84933 8.46967 4.23516 8.70801 3.66683H1.83301V20.1668H18.333V13.7502L16.4997 11.9168ZM15.1247 16.5002H5.04134L7.56217 13.2643L9.35884 15.4277L11.8797 12.1827L15.1247 16.5002ZM17.6913 8.14933C18.0947 7.50766 18.333 6.76516 18.333 5.9585C18.333 3.676 16.4905 1.8335 14.208 1.8335C11.9255 1.8335 10.083 3.676 10.083 5.9585C10.083 8.241 11.9255 10.0835 14.1988 10.0835C15.0055 10.0835 15.7572 9.84516 16.3897 9.44183L19.2497 12.3018L20.5513 11.0002L17.6913 8.14933ZM14.208 8.25016C12.943 8.25016 11.9163 7.2235 11.9163 5.9585C11.9163 4.6935 12.943 3.66683 14.208 3.66683C15.473 3.66683 16.4997 4.6935 16.4997 5.9585C16.4997 7.2235 15.473 8.25016 14.208 8.25016Z" fill="white"/>
</g>
<defs>
<clipPath id="clip0_956_1212">
<rect width="22" height="22" fill="white"/>
</clipPath>
</defs>
</svg>
