<svg width="99" height="99" viewBox="0 0 99 99" fill="none" xmlns="http://www.w3.org/2000/svg">
<g clip-path="url(#clip0_956_1198)">
<path d="M49.8848 0.624023C44.5697 0.624023 40.4765 5.05853 40.4765 10.3609C40.4765 12.1442 40.4721 13.8496 40.4664 15.3141C40.4565 17.8734 38.3767 19.9365 35.8174 19.9365H30.9905C30.8813 19.9365 30.7743 19.9439 30.6687 19.9561C30.5365 19.9714 30.4039 19.9842 30.2709 19.9842C28.9297 19.9842 27.8424 21.0715 27.8424 22.4127V24.5749C27.8424 27.1102 29.8977 29.1655 32.4331 29.1655H67.3364C69.8717 29.1655 71.927 27.1102 71.927 24.5749V22.4127C71.927 21.0715 70.8397 19.9842 69.4986 19.9842C69.3655 19.9842 69.2329 19.9714 69.1007 19.9561C68.9951 19.9439 68.8881 19.9365 68.7789 19.9365H64.1149C61.4925 19.9365 59.3817 17.7748 59.4103 15.1525C59.4253 13.7724 59.4364 12.1566 59.4364 10.3907C59.4364 5.28355 55.1998 0.624023 49.8848 0.624023ZM19.8988 9.93679C17.3249 9.93679 15.2383 12.0234 15.2383 14.5973V93.8339C15.2383 96.4078 17.3249 98.4944 19.8988 98.4944H79.8706C82.4446 98.4944 84.5311 96.4078 84.5311 93.8339V14.5973C84.5311 12.0234 82.4446 9.93679 79.8706 9.93679H65.7863C64.0147 9.93679 62.5785 11.373 62.5785 13.1446C62.5785 14.9162 64.0147 16.3524 65.7863 16.3524H73.5268C76.1008 16.3524 78.1873 18.4389 78.1873 21.0129V87.4064C78.1873 89.9803 76.1008 92.0669 73.5269 92.0669H26.2487C23.6748 92.0669 21.5882 89.9803 21.5882 87.4064V21.0129C21.5882 18.4389 23.6748 16.3524 26.2487 16.3524H33.9832C35.7548 16.3524 37.191 14.9162 37.191 13.1446C37.191 11.373 35.7548 9.93679 33.9832 9.93679H19.8988ZM49.8848 10.0562C51.626 10.0562 53.0328 11.4574 53.0328 13.1923C53.0328 14.9304 51.626 16.3343 49.8848 16.3343C48.1435 16.3343 46.7367 14.9303 46.7367 13.1923C46.7367 11.4575 48.1435 10.0562 49.8848 10.0562ZM29.4165 35.39C28.5488 35.39 27.8424 36.0934 27.8424 36.961C27.8424 37.8287 28.5488 38.5321 29.4165 38.5321C30.2841 38.5321 30.9905 37.8287 30.9905 36.961C30.9905 36.0934 30.2841 35.39 29.4165 35.39ZM38.8635 35.4497C37.9959 35.4497 37.2925 36.1531 37.2925 37.0207C37.2925 37.8884 37.9959 38.5918 38.8635 38.5918H70.356C71.2236 38.5918 71.927 37.8884 71.927 37.0207C71.927 36.1531 71.2236 35.4497 70.356 35.4497H38.8635ZM29.4165 47.2415C28.5488 47.2415 27.8424 47.9448 27.8424 48.8125C27.8424 49.6801 28.5488 50.3835 29.4165 50.3835C30.2841 50.3835 30.9905 49.6801 30.9905 48.8125C30.9905 47.9448 30.2841 47.2415 29.4165 47.2415ZM38.8666 47.3012C37.9972 47.3012 37.2925 48.0059 37.2925 48.8752C37.2925 49.7445 37.9972 50.4492 38.8666 50.4492H70.353C71.2223 50.4492 71.927 49.7445 71.927 48.8752C71.927 48.0059 71.2223 47.3012 70.353 47.3012H38.8666ZM29.4165 59.093C28.5488 59.093 27.8424 59.7964 27.8424 60.664C27.8424 61.5317 28.5488 62.235 29.4165 62.235C30.2841 62.235 30.9905 61.5317 30.9905 60.664C30.9905 59.7964 30.2841 59.093 29.4165 59.093ZM38.8635 59.1586C37.9959 59.1586 37.2925 59.862 37.2925 60.7297C37.2925 61.5973 37.9959 62.3007 38.8635 62.3007H70.356C71.2236 62.3007 71.927 61.5973 71.927 60.7297C71.927 59.862 71.2236 59.1586 70.356 59.1586H38.8635ZM29.4165 70.9504C28.5488 70.9504 27.8424 71.6538 27.8424 72.5214C27.8424 73.3891 28.5488 74.0924 29.4165 74.0924C30.2841 74.0924 30.9905 73.3891 30.9905 72.5214C30.9905 71.6538 30.2841 70.9504 29.4165 70.9504ZM38.8635 71.0161C37.9959 71.0161 37.2925 71.7195 37.2925 72.5872C37.2925 73.4548 37.9959 74.1582 38.8635 74.1582H70.356C71.2236 74.1582 71.927 73.4548 71.927 72.5872C71.927 71.7195 71.2236 71.0161 70.356 71.0161H38.8635ZM29.4165 82.8019C28.5488 82.8019 27.8424 83.5053 27.8424 84.3729C27.8424 85.2406 28.5488 85.944 29.4165 85.944C30.2841 85.944 30.9905 85.2406 30.9905 84.3729C30.9905 83.5053 30.2841 82.8019 29.4165 82.8019ZM38.8635 82.8676C37.9959 82.8676 37.2925 83.5709 37.2925 84.4386C37.2925 85.3062 37.9959 86.0096 38.8635 86.0096H70.356C71.2236 86.0096 71.927 85.3062 71.927 84.4386C71.927 83.5709 71.2236 82.8676 70.356 82.8676H38.8635Z" fill="#8B9DFF"/>
</g>
<defs>
<clipPath id="clip0_956_1198">
<rect width="97.8703" height="97.8703" fill="white" transform="translate(0.939453 0.621094)"/>
</clipPath>
</defs>
</svg>
